{
	"asset":{
		"generator":"Khronos glTF Blender I/O v4.3.47",
		"version":"2.0"
	},
	"scene":0,
	"scenes":[
		{
			"name":"Scene",
			"nodes":[
				0,
				1
			]
		}
	],
	"nodes":[
		{
			"mesh":0,
			"name":"Armadillo",
			"translation":[
				0,
				0.020000003278255463,
				0
			]
		},
		{
			"mesh":1,
			"name":"Cube"
		}
	],
	"materials":[
		{
			"doubleSided":true,
			"name":"Material.001",
			"pbrMetallicRoughness":{
				"baseColorFactor":[
					1,
					0,
					0,
					1
				],
				"metallicFactor":0,
				"roughnessFactor":0.5
			}
		}
	],
	"meshes":[
		{
			"name":"Armadillo",
			"primitives":[
				{
					"attributes":{
						"POSITION":0,
						"NORMAL":1
					},
					"indices":2,
					"material":0
				}
			]
		},
		{
			"name":"Cube.001",
			"primitives":[
				{
					"attributes":{
						"POSITION":3,
						"NORMAL":4,
						"TEXCOORD_0":5
					},
					"indices":6
				}
			]
		}
	],
	"accessors":[
		{
			"bufferView":0,
			"componentType":5126,
			"count":1037457,
			"max":[
				0.5859012603759766,
				1.511904239654541,
				0.7102451324462891
			],
			"min":[
				-0.6841012239456177,
				-0.0013153839390724897,
				-0.44404006004333496
			],
			"type":"VEC3"
		},
		{
			"bufferView":1,
			"componentType":5126,
			"count":1037457,
			"type":"VEC3"
		},
		{
			"bufferView":2,
			"componentType":5125,
			"count":1037832,
			"type":"SCALAR"
		},
		{
			"bufferView":3,
			"componentType":5126,
			"count":24,
			"max":[
				2.9944841861724854,
				0.02803659439086914,
				3.0020341873168945
			],
			"min":[
				-2.9944841861724854,
				-0.02803659439086914,
				-3.0020341873168945
			],
			"type":"VEC3"
		},
		{
			"bufferView":4,
			"componentType":5126,
			"count":24,
			"type":"VEC3"
		},
		{
			"bufferView":5,
			"componentType":5126,
			"count":24,
			"type":"VEC2"
		},
		{
			"bufferView":6,
			"componentType":5123,
			"count":36,
			"type":"SCALAR"
		}
	],
	"bufferViews":[
		{
			"buffer":0,
			"byteLength":12449484,
			"byteOffset":0,
			"target":34962
		},
		{
			"buffer":0,
			"byteLength":12449484,
			"byteOffset":12449484,
			"target":34962
		},
		{
			"buffer":0,
			"byteLength":4151328,
			"byteOffset":24898968,
			"target":34963
		},
		{
			"buffer":0,
			"byteLength":288,
			"byteOffset":29050296,
			"target":34962
		},
		{
			"buffer":0,
			"byteLength":288,
			"byteOffset":29050584,
			"target":34962
		},
		{
			"buffer":0,
			"byteLength":192,
			"byteOffset":29050872,
			"target":34962
		},
		{
			"buffer":0,
			"byteLength":72,
			"byteOffset":29051064,
			"target":34963
		}
	],
	"buffers":[
		{
			"byteLength":29051136,
			"uri":"raytracing_shadow.bin"
		}
	]
}
